<svg width="72" height="68" viewBox="0 0 72 68" fill="none" xmlns="http://www.w3.org/2000/svg">
<mask id="path-1-inside-1_872_294" fill="white">
<path d="M0 0H72V68H0V0Z"/>
</mask>
<path d="M0 0H72V68H0V0Z" fill="#FEF0EA"/>
<path d="M70 0V68H74V0H70Z" fill="#F36531" mask="url(#path-1-inside-1_872_294)"/>
<path fill-rule="evenodd" clip-rule="evenodd" d="M39.9996 20.9992C39.4476 20.9992 38.9996 20.5512 38.9996 19.9992C38.9996 19.4472 39.4476 18.9992 39.9996 18.9992C40.5516 18.9992 40.9996 19.4472 40.9996 19.9992C40.9996 20.5512 40.5516 20.9992 39.9996 20.9992ZM35.9996 20.9992C35.4476 20.9992 34.9996 20.5512 34.9996 19.9992C34.9996 19.4472 35.4476 18.9992 35.9996 18.9992C36.5516 18.9992 36.9996 19.4472 36.9996 19.9992C36.9996 20.5512 36.5516 20.9992 35.9996 20.9992ZM31.9996 20.9992C31.4476 20.9992 30.9996 20.5512 30.9996 19.9992C30.9996 19.4472 31.4476 18.9992 31.9996 18.9992C32.5516 18.9992 32.9996 19.4472 32.9996 19.9992C32.9996 20.5512 32.5516 20.9992 31.9996 20.9992ZM43.0706 12.9282C40.7866 10.6442 37.6256 9.62517 34.3966 10.1242C30.3196 10.7602 26.9396 14.0442 26.1766 18.1112C25.8096 20.0692 26.0206 22.0632 26.7876 23.8762C26.8856 24.1062 26.9156 24.3222 26.8766 24.5152L26.0196 28.8032C25.9536 29.1312 26.0566 29.4702 26.2926 29.7062C26.4816 29.8952 26.7366 29.9992 26.9996 29.9992C27.0646 29.9992 27.1306 29.9932 27.1956 29.9792L31.4786 29.1232C31.7246 29.0762 31.9636 29.1452 32.1226 29.2112C33.9366 29.9782 35.9306 30.1882 37.8876 29.8222C41.9546 29.0592 45.2386 25.6792 45.8746 21.6022C46.3776 18.3742 45.3556 15.2132 43.0706 12.9282Z" fill="#F36531"/>
<mask id="mask0_872_294" style="mask-type:luminance" maskUnits="userSpaceOnUse" x="26" y="10" width="21" height="20">
<path fill-rule="evenodd" clip-rule="evenodd" d="M39.9996 20.9992C39.4476 20.9992 38.9996 20.5512 38.9996 19.9992C38.9996 19.4472 39.4476 18.9992 39.9996 18.9992C40.5516 18.9992 40.9996 19.4472 40.9996 19.9992C40.9996 20.5512 40.5516 20.9992 39.9996 20.9992ZM35.9996 20.9992C35.4476 20.9992 34.9996 20.5512 34.9996 19.9992C34.9996 19.4472 35.4476 18.9992 35.9996 18.9992C36.5516 18.9992 36.9996 19.4472 36.9996 19.9992C36.9996 20.5512 36.5516 20.9992 35.9996 20.9992ZM31.9996 20.9992C31.4476 20.9992 30.9996 20.5512 30.9996 19.9992C30.9996 19.4472 31.4476 18.9992 31.9996 18.9992C32.5516 18.9992 32.9996 19.4472 32.9996 19.9992C32.9996 20.5512 32.5516 20.9992 31.9996 20.9992ZM43.0706 12.9282C40.7866 10.6442 37.6256 9.62517 34.3966 10.1242C30.3196 10.7602 26.9396 14.0442 26.1766 18.1112C25.8096 20.0692 26.0206 22.0632 26.7876 23.8762C26.8856 24.1062 26.9156 24.3222 26.8766 24.5152L26.0196 28.8032C25.9536 29.1312 26.0566 29.4702 26.2926 29.7062C26.4816 29.8952 26.7366 29.9992 26.9996 29.9992C27.0646 29.9992 27.1306 29.9932 27.1956 29.9792L31.4786 29.1232C31.7246 29.0762 31.9636 29.1452 32.1226 29.2112C33.9366 29.9782 35.9306 30.1882 37.8876 29.8222C41.9546 29.0592 45.2386 25.6792 45.8746 21.6022C46.3776 18.3742 45.3556 15.2132 43.0706 12.9282Z" fill="white"/>
</mask>
<g mask="url(#mask0_872_294)">
<rect x="24" y="8" width="24" height="24" fill="#F36531"/>
</g>
<path d="M25.41 46.412C25.046 46.02 24.6913 45.7587 24.346 45.628C24.01 45.4973 23.6693 45.432 23.324 45.432C22.8107 45.432 22.344 45.5253 21.924 45.712C21.5133 45.8893 21.1587 46.1413 20.86 46.468C20.5613 46.7853 20.328 47.1587 20.16 47.588C20.0013 48.0173 19.922 48.4793 19.922 48.974C19.922 49.506 20.0013 49.996 20.16 50.444C20.328 50.892 20.5613 51.2793 20.86 51.606C21.1587 51.9327 21.5133 52.1893 21.924 52.376C22.344 52.5627 22.8107 52.656 23.324 52.656C23.7253 52.656 24.1127 52.5627 24.486 52.376C24.8687 52.18 25.2233 51.872 25.55 51.452L27.006 52.488C26.558 53.104 26.012 53.552 25.368 53.832C24.724 54.112 24.038 54.252 23.31 54.252C22.5447 54.252 21.84 54.1307 21.196 53.888C20.5613 53.636 20.0107 53.286 19.544 52.838C19.0867 52.3807 18.7273 51.8347 18.466 51.2C18.2047 50.5653 18.074 49.8607 18.074 49.086C18.074 48.2927 18.2047 47.574 18.466 46.93C18.7273 46.2767 19.0867 45.7213 19.544 45.264C20.0107 44.8067 20.5613 44.4567 21.196 44.214C21.84 43.962 22.5447 43.836 23.31 43.836C23.982 43.836 24.6027 43.9573 25.172 44.2C25.7507 44.4333 26.2873 44.8347 26.782 45.404L25.41 46.412ZM29.716 48.218H29.744C29.8747 47.938 30.1033 47.686 30.43 47.462C30.766 47.2287 31.1953 47.112 31.718 47.112C32.166 47.112 32.544 47.1867 32.852 47.336C33.1693 47.4853 33.426 47.6813 33.622 47.924C33.818 48.1667 33.958 48.4467 34.042 48.764C34.126 49.0813 34.168 49.4127 34.168 49.758V54H32.488V50.598C32.488 50.4113 32.4787 50.206 32.46 49.982C32.4413 49.7487 32.39 49.534 32.306 49.338C32.2313 49.1327 32.11 48.9647 31.942 48.834C31.774 48.694 31.5453 48.624 31.256 48.624C30.976 48.624 30.738 48.6707 30.542 48.764C30.3553 48.8573 30.1967 48.9833 30.066 49.142C29.9447 49.3007 29.856 49.4827 29.8 49.688C29.744 49.8933 29.716 50.108 29.716 50.332V54H28.036V43.416H29.716V48.218ZM40.275 53.076H40.233C39.9904 53.4587 39.6824 53.7387 39.309 53.916C38.9357 54.084 38.525 54.168 38.077 54.168C37.769 54.168 37.4657 54.126 37.167 54.042C36.8777 53.958 36.6164 53.832 36.383 53.664C36.159 53.496 35.977 53.286 35.837 53.034C35.697 52.782 35.627 52.488 35.627 52.152C35.627 51.788 35.6924 51.48 35.823 51.228C35.9537 50.9667 36.1264 50.752 36.341 50.584C36.565 50.4067 36.8217 50.2667 37.111 50.164C37.4004 50.0613 37.699 49.9867 38.007 49.94C38.3244 49.884 38.6417 49.8513 38.959 49.842C39.2764 49.8233 39.575 49.814 39.855 49.814H40.275V49.632C40.275 49.212 40.1304 48.8993 39.841 48.694C39.5517 48.4793 39.183 48.372 38.735 48.372C38.3804 48.372 38.049 48.4373 37.741 48.568C37.433 48.6893 37.167 48.8573 36.943 49.072L36.061 48.19C36.4344 47.8073 36.8684 47.532 37.363 47.364C37.867 47.196 38.385 47.112 38.917 47.112C39.393 47.112 39.7944 47.168 40.121 47.28C40.4477 47.3827 40.7184 47.518 40.933 47.686C41.1477 47.854 41.311 48.05 41.423 48.274C41.5444 48.4887 41.6284 48.708 41.675 48.932C41.731 49.156 41.7637 49.3753 41.773 49.59C41.7824 49.7953 41.787 49.9773 41.787 50.136V54H40.275V53.076ZM40.177 50.99H39.827C39.5937 50.99 39.3324 50.9993 39.043 51.018C38.7537 51.0367 38.4784 51.0833 38.217 51.158C37.965 51.2233 37.7504 51.326 37.573 51.466C37.3957 51.5967 37.307 51.7833 37.307 52.026C37.307 52.1847 37.3397 52.32 37.405 52.432C37.4797 52.5347 37.573 52.6233 37.685 52.698C37.797 52.7727 37.923 52.8287 38.063 52.866C38.203 52.894 38.343 52.908 38.483 52.908C39.0617 52.908 39.4864 52.7727 39.757 52.502C40.037 52.222 40.177 51.844 40.177 51.368V50.99ZM42.8106 48.708V47.28H44.1966V45.334H45.8766V47.28H47.7246V48.708H45.8766V51.648C45.8766 51.984 45.9372 52.25 46.0586 52.446C46.1892 52.642 46.4412 52.74 46.8146 52.74C46.9639 52.74 47.1272 52.726 47.3046 52.698C47.4819 52.6607 47.6219 52.6047 47.7246 52.53V53.944C47.5472 54.028 47.3279 54.084 47.0666 54.112C46.8146 54.1493 46.5906 54.168 46.3946 54.168C45.9466 54.168 45.5779 54.1167 45.2886 54.014C45.0086 53.9207 44.7846 53.776 44.6166 53.58C44.4579 53.3747 44.3459 53.1227 44.2806 52.824C44.2246 52.5253 44.1966 52.18 44.1966 51.788V48.708H42.8106ZM52.62 49.142C52.2933 48.6847 51.8547 48.456 51.304 48.456C51.08 48.456 50.8607 48.512 50.646 48.624C50.4313 48.736 50.324 48.918 50.324 49.17C50.324 49.3753 50.4127 49.5247 50.59 49.618C50.7673 49.7113 50.9913 49.7907 51.262 49.856C51.5327 49.9213 51.822 49.9913 52.13 50.066C52.4473 50.1313 52.7413 50.2387 53.012 50.388C53.2827 50.528 53.5067 50.724 53.684 50.976C53.8613 51.228 53.95 51.5733 53.95 52.012C53.95 52.4133 53.8613 52.754 53.684 53.034C53.516 53.3047 53.292 53.524 53.012 53.692C52.7413 53.86 52.4333 53.9813 52.088 54.056C51.7427 54.1307 51.3973 54.168 51.052 54.168C50.5293 54.168 50.0487 54.0933 49.61 53.944C49.1713 53.7947 48.7793 53.524 48.434 53.132L49.554 52.082C49.7687 52.3247 49.9973 52.5253 50.24 52.684C50.492 52.8333 50.7953 52.908 51.15 52.908C51.2713 52.908 51.3973 52.894 51.528 52.866C51.6587 52.838 51.78 52.7913 51.892 52.726C52.004 52.6607 52.0927 52.5813 52.158 52.488C52.2327 52.3853 52.27 52.2687 52.27 52.138C52.27 51.9047 52.1813 51.732 52.004 51.62C51.8267 51.508 51.6027 51.4193 51.332 51.354C51.0613 51.2793 50.7673 51.214 50.45 51.158C50.142 51.0927 49.8527 50.9947 49.582 50.864C49.3113 50.724 49.0873 50.5327 48.91 50.29C48.7327 50.0473 48.644 49.7113 48.644 49.282C48.644 48.9087 48.7187 48.5867 48.868 48.316C49.0267 48.036 49.232 47.8073 49.484 47.63C49.736 47.4527 50.0253 47.322 50.352 47.238C50.6787 47.154 51.01 47.112 51.346 47.112C51.794 47.112 52.2373 47.1913 52.676 47.35C53.1147 47.4993 53.4693 47.7607 53.74 48.134L52.62 49.142Z" fill="#F36531"/>
</svg>
