<svg width="72" height="68" viewBox="0 0 72 68" fill="none" xmlns="http://www.w3.org/2000/svg">
<rect width="72" height="68" fill="white"/>
<path fill-rule="evenodd" clip-rule="evenodd" d="M33 19C35.206 19 37 17.206 37 15C37 12.794 35.206 11 33 11C30.794 11 29 12.794 29 15C29 17.206 30.794 19 33 19ZM41 21C42.654 21 44 19.654 44 18C44 16.346 42.654 15 41 15C39.346 15 38 16.346 38 18C38 19.654 39.346 21 41 21ZM46 27C46 27.552 45.553 28 45 28H40C40 28.552 39.553 29 39 29H27C26.447 29 26 28.552 26 28C26 24.14 29.141 21 33 21C34.927 21 36.673 21.783 37.94 23.046C38.809 22.374 39.879 22 41 22C43.757 22 46 24.243 46 27Z" fill="#5F6269"/>
<mask id="mask0_872_309" style="mask-type:luminance" maskUnits="userSpaceOnUse" x="26" y="11" width="20" height="18">
<path fill-rule="evenodd" clip-rule="evenodd" d="M33 19C35.206 19 37 17.206 37 15C37 12.794 35.206 11 33 11C30.794 11 29 12.794 29 15C29 17.206 30.794 19 33 19ZM41 21C42.654 21 44 19.654 44 18C44 16.346 42.654 15 41 15C39.346 15 38 16.346 38 18C38 19.654 39.346 21 41 21ZM46 27C46 27.552 45.553 28 45 28H40C40 28.552 39.553 29 39 29H27C26.447 29 26 28.552 26 28C26 24.14 29.141 21 33 21C34.927 21 36.673 21.783 37.94 23.046C38.809 22.374 39.879 22 41 22C43.757 22 46 24.243 46 27Z" fill="white"/>
</mask>
<g mask="url(#mask0_872_309)">
<rect x="24" y="8" width="24" height="24" fill="#5F6269"/>
</g>
<path d="M14.106 44.088H17.438C17.914 44.088 18.3713 44.1347 18.81 44.228C19.258 44.3213 19.65 44.48 19.986 44.704C20.322 44.9187 20.588 45.2127 20.784 45.586C20.9893 45.95 21.092 46.4073 21.092 46.958C21.092 47.5833 20.9847 48.0873 20.77 48.47C20.5553 48.8527 20.266 49.1513 19.902 49.366C19.538 49.5713 19.1133 49.7113 18.628 49.786C18.152 49.8607 17.6527 49.898 17.13 49.898H15.87V54H14.106V44.088ZM16.934 48.386C17.186 48.386 17.4473 48.3767 17.718 48.358C17.9887 48.3393 18.236 48.2833 18.46 48.19C18.6933 48.0967 18.88 47.9567 19.02 47.77C19.1693 47.5833 19.244 47.322 19.244 46.986C19.244 46.678 19.1787 46.4353 19.048 46.258C18.9173 46.0713 18.7493 45.9313 18.544 45.838C18.3387 45.7353 18.11 45.67 17.858 45.642C17.606 45.614 17.3633 45.6 17.13 45.6H15.87V48.386H16.934ZM23.8546 51.228C23.9106 51.732 24.1066 52.124 24.4426 52.404C24.7786 52.684 25.1846 52.824 25.6606 52.824C26.0806 52.824 26.4306 52.74 26.7106 52.572C26.9999 52.3947 27.2519 52.1753 27.4666 51.914L28.6706 52.824C28.2786 53.3093 27.8399 53.6547 27.3546 53.86C26.8693 54.0653 26.3606 54.168 25.8286 54.168C25.3246 54.168 24.8486 54.084 24.4006 53.916C23.9526 53.748 23.5653 53.51 23.2386 53.202C22.9119 52.894 22.6506 52.5253 22.4546 52.096C22.2679 51.6573 22.1746 51.172 22.1746 50.64C22.1746 50.108 22.2679 49.6273 22.4546 49.198C22.6506 48.7593 22.9119 48.386 23.2386 48.078C23.5653 47.77 23.9526 47.532 24.4006 47.364C24.8486 47.196 25.3246 47.112 25.8286 47.112C26.2953 47.112 26.7199 47.196 27.1026 47.364C27.4946 47.5227 27.8259 47.756 28.0966 48.064C28.3766 48.372 28.5913 48.7547 28.7406 49.212C28.8993 49.66 28.9786 50.178 28.9786 50.766V51.228H23.8546ZM27.2986 49.968C27.2893 49.4733 27.1353 49.086 26.8366 48.806C26.5379 48.5167 26.1226 48.372 25.5906 48.372C25.0866 48.372 24.6853 48.5167 24.3866 48.806C24.0973 49.0953 23.9199 49.4827 23.8546 49.968H27.2986ZM30.2137 50.64C30.2137 50.108 30.307 49.6273 30.4937 49.198C30.6897 48.7593 30.951 48.386 31.2777 48.078C31.6043 47.77 31.9917 47.532 32.4397 47.364C32.8877 47.196 33.3637 47.112 33.8677 47.112C34.3717 47.112 34.8477 47.196 35.2957 47.364C35.7437 47.532 36.131 47.77 36.4577 48.078C36.7843 48.386 37.041 48.7593 37.2277 49.198C37.4237 49.6273 37.5217 50.108 37.5217 50.64C37.5217 51.172 37.4237 51.6573 37.2277 52.096C37.041 52.5253 36.7843 52.894 36.4577 53.202C36.131 53.51 35.7437 53.748 35.2957 53.916C34.8477 54.084 34.3717 54.168 33.8677 54.168C33.3637 54.168 32.8877 54.084 32.4397 53.916C31.9917 53.748 31.6043 53.51 31.2777 53.202C30.951 52.894 30.6897 52.5253 30.4937 52.096C30.307 51.6573 30.2137 51.172 30.2137 50.64ZM31.8937 50.64C31.8937 50.9013 31.9357 51.1533 32.0197 51.396C32.113 51.6387 32.2437 51.8533 32.4117 52.04C32.589 52.2267 32.799 52.376 33.0417 52.488C33.2843 52.6 33.5597 52.656 33.8677 52.656C34.1757 52.656 34.451 52.6 34.6937 52.488C34.9363 52.376 35.1417 52.2267 35.3097 52.04C35.487 51.8533 35.6177 51.6387 35.7017 51.396C35.795 51.1533 35.8417 50.9013 35.8417 50.64C35.8417 50.3787 35.795 50.1267 35.7017 49.884C35.6177 49.6413 35.487 49.4267 35.3097 49.24C35.1417 49.0533 34.9363 48.904 34.6937 48.792C34.451 48.68 34.1757 48.624 33.8677 48.624C33.5597 48.624 33.2843 48.68 33.0417 48.792C32.799 48.904 32.589 49.0533 32.4117 49.24C32.2437 49.4267 32.113 49.6413 32.0197 49.884C31.9357 50.1267 31.8937 50.3787 31.8937 50.64ZM39.0946 47.28H40.6906V48.288H40.7186C40.9612 47.8773 41.2879 47.5787 41.6986 47.392C42.1092 47.2053 42.5526 47.112 43.0286 47.112C43.5419 47.112 44.0039 47.2053 44.4146 47.392C44.8252 47.5693 45.1752 47.8167 45.4646 48.134C45.7539 48.4513 45.9732 48.8247 46.1226 49.254C46.2719 49.6833 46.3466 50.1453 46.3466 50.64C46.3466 51.1347 46.2672 51.5967 46.1086 52.026C45.9499 52.4553 45.7259 52.8287 45.4366 53.146C45.1566 53.4633 44.8159 53.7153 44.4146 53.902C44.0132 54.0793 43.5746 54.168 43.0986 54.168C42.7812 54.168 42.5012 54.1353 42.2586 54.07C42.0159 54.0047 41.8012 53.9207 41.6146 53.818C41.4279 53.7153 41.2692 53.608 41.1386 53.496C41.0079 53.3747 40.9006 53.258 40.8166 53.146H40.7746V57.192H39.0946V47.28ZM44.6666 50.64C44.6666 50.3787 44.6199 50.1267 44.5266 49.884C44.4426 49.6413 44.3119 49.4267 44.1346 49.24C43.9666 49.0533 43.7612 48.904 43.5186 48.792C43.2759 48.68 43.0006 48.624 42.6926 48.624C42.3846 48.624 42.1092 48.68 41.8666 48.792C41.6239 48.904 41.4139 49.0533 41.2366 49.24C41.0686 49.4267 40.9379 49.6413 40.8446 49.884C40.7606 50.1267 40.7186 50.3787 40.7186 50.64C40.7186 50.9013 40.7606 51.1533 40.8446 51.396C40.9379 51.6387 41.0686 51.8533 41.2366 52.04C41.4139 52.2267 41.6239 52.376 41.8666 52.488C42.1092 52.6 42.3846 52.656 42.6926 52.656C43.0006 52.656 43.2759 52.6 43.5186 52.488C43.7612 52.376 43.9666 52.2267 44.1346 52.04C44.3119 51.8533 44.4426 51.6387 44.5266 51.396C44.6199 51.1533 44.6666 50.9013 44.6666 50.64ZM47.9409 43.416H49.6209V54H47.9409V43.416ZM52.8937 51.228C52.9497 51.732 53.1457 52.124 53.4817 52.404C53.8177 52.684 54.2237 52.824 54.6997 52.824C55.1197 52.824 55.4697 52.74 55.7497 52.572C56.039 52.3947 56.291 52.1753 56.5057 51.914L57.7097 52.824C57.3177 53.3093 56.879 53.6547 56.3937 53.86C55.9083 54.0653 55.3997 54.168 54.8677 54.168C54.3637 54.168 53.8877 54.084 53.4397 53.916C52.9917 53.748 52.6043 53.51 52.2777 53.202C51.951 52.894 51.6897 52.5253 51.4937 52.096C51.307 51.6573 51.2137 51.172 51.2137 50.64C51.2137 50.108 51.307 49.6273 51.4937 49.198C51.6897 48.7593 51.951 48.386 52.2777 48.078C52.6043 47.77 52.9917 47.532 53.4397 47.364C53.8877 47.196 54.3637 47.112 54.8677 47.112C55.3343 47.112 55.759 47.196 56.1417 47.364C56.5337 47.5227 56.865 47.756 57.1357 48.064C57.4157 48.372 57.6303 48.7547 57.7797 49.212C57.9383 49.66 58.0177 50.178 58.0177 50.766V51.228H52.8937ZM56.3377 49.968C56.3283 49.4733 56.1743 49.086 55.8757 48.806C55.577 48.5167 55.1617 48.372 54.6297 48.372C54.1257 48.372 53.7243 48.5167 53.4257 48.806C53.1363 49.0953 52.959 49.4827 52.8937 49.968H56.3377Z" fill="#5F6269"/>
</svg>
