<svg width="72" height="68" viewBox="0 0 72 68" fill="none" xmlns="http://www.w3.org/2000/svg">
<rect width="72" height="68" fill="white"/>
<g clip-path="url(#clip0_872_322)">
<path d="M27.7801 13.0757C27.7801 12.7815 27.7757 12.5201 27.7808 12.2586C27.7946 11.5222 28.3074 11.0022 29.038 11.0022C33.6411 10.9993 38.2442 10.9993 42.848 11.0022C43.5677 11.0022 44.0819 11.5091 44.1066 12.2296C44.1161 12.4997 44.1081 12.7706 44.1081 13.0757C44.3354 13.0757 44.5417 13.0728 44.7472 13.0757C45.4473 13.088 45.9441 13.5608 45.9927 14.2595C45.9985 14.3408 45.9978 14.4229 45.9978 14.5042C45.9978 18.0187 45.9964 21.5331 46 25.0475C46 25.4317 45.9441 25.7897 45.6666 26.0803C45.3994 26.3599 45.0675 26.4732 44.6862 26.4724C43.2881 26.4703 41.89 26.4666 40.4912 26.4782C40.3119 26.4797 40.1136 26.5305 39.9574 26.6184C38.7104 27.3251 37.4707 28.0426 36.2331 28.766C36.0632 28.8655 35.9354 28.8677 35.764 28.7667C34.5199 28.0375 33.2707 27.3164 32.0179 26.6024C31.8842 26.5262 31.7143 26.4804 31.5603 26.479C30.171 26.4695 28.7823 26.4739 27.393 26.4732C26.4822 26.4739 26.0015 25.9931 26.0007 25.078C26 21.5636 26 18.0492 26 14.5348C26 13.5281 26.4546 13.0771 27.4671 13.0757C27.5571 13.0757 27.6472 13.0757 27.7801 13.0757ZM28.0597 13.0532H43.8357C43.8357 12.8142 43.8357 12.5978 43.8357 12.3806C43.8335 11.6427 43.4668 11.2731 42.734 11.2731C40.7454 11.2731 38.7576 11.2731 36.7691 11.2731C34.209 11.2731 31.6489 11.2731 29.0881 11.2731C28.5216 11.2731 28.1171 11.5963 28.0648 12.1185C28.0343 12.422 28.059 12.7314 28.059 13.0524L28.0597 13.0532ZM35.9906 19.7101C34.3601 19.7138 32.9707 20.8126 32.5844 22.393C32.4936 22.7656 32.572 23.0539 32.8683 23.3146C34.6506 24.8819 37.3283 24.8863 39.1193 23.3233C39.4149 23.0655 39.5057 22.7808 39.4149 22.4053C39.0336 20.8184 37.6268 19.7065 35.9898 19.7101H35.9906ZM37.5949 16.6417C37.5927 15.7658 36.8781 15.0511 36.0022 15.0475C35.1212 15.0439 34.3979 15.7745 34.4037 16.6634C34.4095 17.548 35.1147 18.2511 35.9956 18.2511C36.8904 18.2511 37.5971 17.5393 37.5949 16.6424V16.6417ZM37.7627 19.8561C38.9131 20.5221 39.5682 21.4815 39.765 22.8179C40.0809 22.5869 40.3714 22.4017 40.6242 22.1744C40.72 22.088 40.7868 21.8969 40.7694 21.7669C40.5878 20.427 39.1266 19.4843 37.7634 19.8554L37.7627 19.8561ZM34.2294 19.859C32.8959 19.4654 31.365 20.4611 31.2226 21.7873C31.211 21.8933 31.2429 22.048 31.3148 22.1112C31.5945 22.3538 31.898 22.5687 32.2336 22.8258C32.4347 21.4706 33.0906 20.5228 34.2294 19.8598V19.859ZM38.234 18.6629C38.8317 18.6367 39.176 18.4334 39.3663 18.015C39.5515 17.6083 39.497 17.2132 39.2137 16.8697C38.9218 16.5167 38.5354 16.41 38.0895 16.5088C37.9384 16.5422 37.8876 16.625 37.852 16.7833C37.7808 17.0949 37.6886 17.4122 37.5426 17.694C37.3719 18.023 37.3392 18.1312 37.6406 18.3586C37.8476 18.5147 38.1084 18.6004 38.234 18.6629ZM33.6069 18.6512C34.0267 18.6404 34.3296 18.4711 34.5475 18.145C34.6252 18.0288 34.6433 17.9373 34.538 17.8117C34.2867 17.5125 34.1647 17.158 34.1277 16.7651C34.119 16.6743 34.0035 16.5436 33.9134 16.5189C33.4726 16.3984 33.0819 16.5146 32.7884 16.869C32.503 17.2132 32.4514 17.6112 32.6381 18.0172C32.8306 18.4348 33.1755 18.6396 33.6077 18.6505L33.6069 18.6512Z" fill="#5F6269"/>
</g>
<path d="M14.606 44.088H18.05C18.526 44.088 18.9833 44.1347 19.422 44.228C19.87 44.312 20.2667 44.4613 20.612 44.676C20.9573 44.8907 21.2327 45.18 21.438 45.544C21.6433 45.908 21.746 46.37 21.746 46.93C21.746 47.6487 21.5453 48.2507 21.144 48.736C20.752 49.2213 20.1873 49.5153 19.45 49.618L22.082 54H19.954L17.658 49.8H16.37V54H14.606V44.088ZM17.742 48.288C17.994 48.288 18.246 48.2787 18.498 48.26C18.75 48.232 18.9787 48.176 19.184 48.092C19.3987 47.9987 19.5713 47.8633 19.702 47.686C19.8327 47.4993 19.898 47.2427 19.898 46.916C19.898 46.6267 19.8373 46.3933 19.716 46.216C19.5947 46.0387 19.436 45.908 19.24 45.824C19.044 45.7307 18.8247 45.67 18.582 45.642C18.3487 45.614 18.12 45.6 17.896 45.6H16.37V48.288H17.742ZM22.9344 50.64C22.9344 50.108 23.0277 49.6273 23.2144 49.198C23.4104 48.7593 23.6717 48.386 23.9984 48.078C24.325 47.77 24.7124 47.532 25.1604 47.364C25.6084 47.196 26.0844 47.112 26.5884 47.112C27.0924 47.112 27.5684 47.196 28.0164 47.364C28.4644 47.532 28.8517 47.77 29.1784 48.078C29.505 48.386 29.7617 48.7593 29.9484 49.198C30.1444 49.6273 30.2424 50.108 30.2424 50.64C30.2424 51.172 30.1444 51.6573 29.9484 52.096C29.7617 52.5253 29.505 52.894 29.1784 53.202C28.8517 53.51 28.4644 53.748 28.0164 53.916C27.5684 54.084 27.0924 54.168 26.5884 54.168C26.0844 54.168 25.6084 54.084 25.1604 53.916C24.7124 53.748 24.325 53.51 23.9984 53.202C23.6717 52.894 23.4104 52.5253 23.2144 52.096C23.0277 51.6573 22.9344 51.172 22.9344 50.64ZM24.6144 50.64C24.6144 50.9013 24.6564 51.1533 24.7404 51.396C24.8337 51.6387 24.9644 51.8533 25.1324 52.04C25.3097 52.2267 25.5197 52.376 25.7624 52.488C26.005 52.6 26.2804 52.656 26.5884 52.656C26.8964 52.656 27.1717 52.6 27.4144 52.488C27.657 52.376 27.8624 52.2267 28.0304 52.04C28.2077 51.8533 28.3384 51.6387 28.4224 51.396C28.5157 51.1533 28.5624 50.9013 28.5624 50.64C28.5624 50.3787 28.5157 50.1267 28.4224 49.884C28.3384 49.6413 28.2077 49.4267 28.0304 49.24C27.8624 49.0533 27.657 48.904 27.4144 48.792C27.1717 48.68 26.8964 48.624 26.5884 48.624C26.2804 48.624 26.005 48.68 25.7624 48.792C25.5197 48.904 25.3097 49.0533 25.1324 49.24C24.9644 49.4267 24.8337 49.6413 24.7404 49.884C24.6564 50.1267 24.6144 50.3787 24.6144 50.64ZM31.4793 50.64C31.4793 50.108 31.5726 49.6273 31.7593 49.198C31.9553 48.7593 32.2166 48.386 32.5433 48.078C32.8699 47.77 33.2573 47.532 33.7053 47.364C34.1533 47.196 34.6293 47.112 35.1333 47.112C35.6373 47.112 36.1133 47.196 36.5613 47.364C37.0093 47.532 37.3966 47.77 37.7233 48.078C38.0499 48.386 38.3066 48.7593 38.4933 49.198C38.6893 49.6273 38.7873 50.108 38.7873 50.64C38.7873 51.172 38.6893 51.6573 38.4933 52.096C38.3066 52.5253 38.0499 52.894 37.7233 53.202C37.3966 53.51 37.0093 53.748 36.5613 53.916C36.1133 54.084 35.6373 54.168 35.1333 54.168C34.6293 54.168 34.1533 54.084 33.7053 53.916C33.2573 53.748 32.8699 53.51 32.5433 53.202C32.2166 52.894 31.9553 52.5253 31.7593 52.096C31.5726 51.6573 31.4793 51.172 31.4793 50.64ZM33.1593 50.64C33.1593 50.9013 33.2013 51.1533 33.2853 51.396C33.3786 51.6387 33.5093 51.8533 33.6773 52.04C33.8546 52.2267 34.0646 52.376 34.3073 52.488C34.5499 52.6 34.8253 52.656 35.1333 52.656C35.4413 52.656 35.7166 52.6 35.9593 52.488C36.2019 52.376 36.4073 52.2267 36.5753 52.04C36.7526 51.8533 36.8833 51.6387 36.9673 51.396C37.0606 51.1533 37.1073 50.9013 37.1073 50.64C37.1073 50.3787 37.0606 50.1267 36.9673 49.884C36.8833 49.6413 36.7526 49.4267 36.5753 49.24C36.4073 49.0533 36.2019 48.904 35.9593 48.792C35.7166 48.68 35.4413 48.624 35.1333 48.624C34.8253 48.624 34.5499 48.68 34.3073 48.792C34.0646 48.904 33.8546 49.0533 33.6773 49.24C33.5093 49.4267 33.3786 49.6413 33.2853 49.884C33.2013 50.1267 33.1593 50.3787 33.1593 50.64ZM40.2902 47.28H41.8862V48.33H41.9142C42.0635 48.0127 42.3015 47.7327 42.6282 47.49C42.9642 47.238 43.4122 47.112 43.9722 47.112C45.0269 47.112 45.7269 47.5273 46.0722 48.358C46.3149 47.9287 46.6182 47.616 46.9822 47.42C47.3462 47.2147 47.7802 47.112 48.2842 47.112C48.7322 47.112 49.1102 47.1867 49.4182 47.336C49.7262 47.4853 49.9735 47.6907 50.1602 47.952C50.3562 48.2133 50.4962 48.5213 50.5802 48.876C50.6642 49.2213 50.7062 49.5947 50.7062 49.996V54H49.0262V50.192C49.0262 49.9867 49.0075 49.7907 48.9702 49.604C48.9329 49.408 48.8675 49.24 48.7742 49.1C48.6809 48.9507 48.5549 48.834 48.3962 48.75C48.2375 48.666 48.0322 48.624 47.7802 48.624C47.5189 48.624 47.2949 48.6753 47.1082 48.778C46.9309 48.8713 46.7815 49.002 46.6602 49.17C46.5482 49.3287 46.4642 49.5153 46.4082 49.73C46.3615 49.9353 46.3382 50.1453 46.3382 50.36V54H44.6582V49.996C44.6582 49.576 44.5695 49.2447 44.3922 49.002C44.2149 48.75 43.9209 48.624 43.5102 48.624C43.2302 48.624 42.9922 48.6707 42.7962 48.764C42.6095 48.8573 42.4509 48.9833 42.3202 49.142C42.1989 49.3007 42.1102 49.4827 42.0542 49.688C41.9982 49.8933 41.9702 50.108 41.9702 50.332V54H40.2902V47.28ZM56.1258 49.142C55.7992 48.6847 55.3605 48.456 54.8098 48.456C54.5858 48.456 54.3665 48.512 54.1518 48.624C53.9372 48.736 53.8298 48.918 53.8298 49.17C53.8298 49.3753 53.9185 49.5247 54.0958 49.618C54.2732 49.7113 54.4972 49.7907 54.7678 49.856C55.0385 49.9213 55.3278 49.9913 55.6358 50.066C55.9532 50.1313 56.2472 50.2387 56.5178 50.388C56.7885 50.528 57.0125 50.724 57.1898 50.976C57.3672 51.228 57.4558 51.5733 57.4558 52.012C57.4558 52.4133 57.3672 52.754 57.1898 53.034C57.0218 53.3047 56.7978 53.524 56.5178 53.692C56.2472 53.86 55.9392 53.9813 55.5938 54.056C55.2485 54.1307 54.9032 54.168 54.5578 54.168C54.0352 54.168 53.5545 54.0933 53.1158 53.944C52.6772 53.7947 52.2852 53.524 51.9398 53.132L53.0598 52.082C53.2745 52.3247 53.5032 52.5253 53.7458 52.684C53.9978 52.8333 54.3012 52.908 54.6558 52.908C54.7772 52.908 54.9032 52.894 55.0338 52.866C55.1645 52.838 55.2858 52.7913 55.3978 52.726C55.5098 52.6607 55.5985 52.5813 55.6638 52.488C55.7385 52.3853 55.7758 52.2687 55.7758 52.138C55.7758 51.9047 55.6872 51.732 55.5098 51.62C55.3325 51.508 55.1085 51.4193 54.8378 51.354C54.5672 51.2793 54.2732 51.214 53.9558 51.158C53.6478 51.0927 53.3585 50.9947 53.0878 50.864C52.8172 50.724 52.5932 50.5327 52.4158 50.29C52.2385 50.0473 52.1498 49.7113 52.1498 49.282C52.1498 48.9087 52.2245 48.5867 52.3738 48.316C52.5325 48.036 52.7378 47.8073 52.9898 47.63C53.2418 47.4527 53.5312 47.322 53.8578 47.238C54.1845 47.154 54.5158 47.112 54.8518 47.112C55.2998 47.112 55.7432 47.1913 56.1818 47.35C56.6205 47.4993 56.9752 47.7607 57.2458 48.134L56.1258 49.142Z" fill="#5F6269"/>
<defs>
<clipPath id="clip0_872_322">
<rect width="20" height="17.8415" fill="white" transform="translate(26 11)"/>
</clipPath>
</defs>
</svg>
